<?xml version="1.0" encoding="UTF-8" standalone="no"?>
<svg
   xmlns:dc="http://purl.org/dc/elements/1.1/"
   xmlns:cc="http://creativecommons.org/ns#"
   xmlns:rdf="http://www.w3.org/1999/02/22-rdf-syntax-ns#"
   xmlns:svg="http://www.w3.org/2000/svg"
   xmlns="http://www.w3.org/2000/svg"
   xmlns:sodipodi="http://sodipodi.sourceforge.net/DTD/sodipodi-0.dtd"
   xmlns:inkscape="http://www.inkscape.org/namespaces/inkscape"
   width="4.5cm"
   height="5.1999998cm"
   viewBox="0 0 170.07874 196.53543"
   version="1.1"
   id="svg6"
   sodipodi:docname="logo.svg"
   inkscape:export-filename="C:\Users\kaued\Dropbox (Bioversity CR)\Rcode\ClimMobTools\man\figures\logo.png"
   inkscape:export-xdpi="100"
   inkscape:export-ydpi="100"
   inkscape:version="0.92.3 (2405546, 2018-03-11)">
  <metadata
     id="metadata12">
    <rdf:RDF>
      <cc:Work
         rdf:about="">
        <dc:format>image/svg+xml</dc:format>
        <dc:type
           rdf:resource="http://purl.org/dc/dcmitype/StillImage" />
        <dc:title />
      </cc:Work>
    </rdf:RDF>
  </metadata>
  <defs
     id="defs10" />
  <sodipodi:namedview
     pagecolor="#ffffff"
     bordercolor="#666666"
     borderopacity="1"
     objecttolerance="10"
     gridtolerance="10"
     guidetolerance="10"
     inkscape:pageopacity="0"
     inkscape:pageshadow="2"
     inkscape:window-width="1280"
     inkscape:window-height="961"
     id="namedview8"
     showgrid="false"
     inkscape:zoom="2.3787325"
     inkscape:cx="84.204544"
     inkscape:cy="87.748624"
     inkscape:window-x="-8"
     inkscape:window-y="-8"
     inkscape:window-maximized="1"
     inkscape:current-layer="svg6"
     units="cm" />
  <path
     d="M 6.4162442,142.36982 V 52.047455 L 84.493098,6.8784349 162.56995,52.047455 v 90.322365 l -78.076852,45.16771 z"
     id="path2"
     inkscape:connector-curvature="0"
     style="fill:#000000;stroke-width:1.30410552;fill-opacity:1"
     inkscape:export-xdpi="100"
     inkscape:export-ydpi="100" />
  <path
     d="M 85.333882,9.8211794 161.65767,53.979539 V 142.27359 L 85.333882,186.43196 9.0101013,142.27359 V 53.979539 Z m 0,-7.6946117 L 2.3732513,50.126233 V 146.1269 L 85.333882,194.12657 168.29452,146.1269 V 50.126233 Z"
     id="path4"
     style="fill:#d45500;stroke-width:1.33034372"
     inkscape:connector-curvature="0"
     inkscape:export-xdpi="100"
     inkscape:export-ydpi="100" />
  <text
     xml:space="preserve"
     style="font-style:normal;font-variant:normal;font-weight:bold;font-stretch:normal;font-size:17.33333397px;line-height:1.25;font-family:sans-serif;-inkscape-font-specification:'sans-serif, Bold';font-variant-ligatures:normal;font-variant-caps:normal;font-variant-numeric:normal;font-feature-settings:normal;text-align:start;letter-spacing:0px;word-spacing:0px;writing-mode:lr-tb;text-anchor:start;fill:#4d4d4d;fill-opacity:1;stroke:none"
     x="17.419083"
     y="104.5209"
     id="text833-5"
     inkscape:export-xdpi="100"
     inkscape:export-ydpi="100"><tspan
       sodipodi:role="line"
       id="tspan831-6"
       x="17.419083"
       y="104.5209"><tspan
         style="fill:#999999"
         id="tspan864">Clim</tspan><tspan
         style="font-style:normal;font-variant:normal;font-weight:bold;font-stretch:normal;font-size:17.33333397px;font-family:sans-serif;-inkscape-font-specification:'sans-serif, Bold';font-variant-ligatures:normal;font-variant-caps:normal;font-variant-numeric:normal;font-feature-settings:normal;text-align:start;writing-mode:lr-tb;text-anchor:start;fill:#d45500"
         id="tspan911">Mob</tspan><tspan
         style="fill:#999999"
         id="tspan866">Tools</tspan></tspan></text>
  <g
     transform="matrix(0.11432433,0,0,0.11432433,59.346438,122.74842)"
     id="g48">
    <g
       id="g18">
      <path
         inkscape:connector-curvature="0"
         style="fill:#b3b3b3"
         d="m 46.83,35.454 27.57,59.62 -29.17,13.41 v -0.01 c -14.96,-21.74 -14.82,-51.24 1.6,-73.02 z"
         id="path2-1" />
      <polygon
         style="fill:#808080"
         points="85.12,116.174 97.18,141.744 84.23,147.844 72.03,121.964 84.97,115.864 "
         id="polygon4" />
      <polygon
         style="fill:#808080"
         points="110.48,103.834 122.68,129.714 109.74,135.814 109.59,135.504 97.53,109.944 "
         id="polygon6" />
      <polygon
         style="fill:#999999"
         points="84.97,115.864 97.53,109.944 109.59,135.504 109.74,135.814 97.18,141.744 85.12,116.174 "
         id="polygon8" />
      <path
         inkscape:connector-curvature="0"
         style="fill:#cccccc"
         d="m 97.18,141.744 12.56,-5.93 12.94,-6.1 -12.2,-25.88 -12.95,6.11 -12.56,5.92 -12.94,6.1 12.2,25.88 z m 58.21,-64.95 c 0,4.96 -0.41,9.84 -1.68,14.43 -0.92,3.35 -5.14,13.99 -5.14,13.99 l -0.02,0.05 -23.2,56.88 c -5.56,13.63 -8.65,28.14 -9.12,42.85 l -1.91,-0.07 h -44.9 c -2.78,-18.6 -9.76,-36.41 -20.52,-52.03 l -24.09,-35.03 15.52,-7.13 4.9,-2.25 29.17,-13.41 49.03,-22.54 -26.67,-58.15 c 32.72,2.01 58.63,29.18 58.63,62.41 z"
         id="path10" />
      <path
         inkscape:connector-curvature="0"
         style="fill:#999999"
         d="m 116.15,375.974 v 30.45 c 0,12.53 -10.15,22.69 -22.68,22.69 -6.27,0 -11.93,-2.54 -16.04,-6.65 -4.1,-4.1 -6.64,-9.77 -6.64,-16.04 v -30.45 h 1.22 41.69 z m -13.12,29.76 c 0,-5.19 -4.2,-9.4 -9.4,-9.4 -5.19,0 -9.4,4.21 -9.4,9.4 0,5.19 4.21,9.4 9.4,9.4 5.2,0 9.4,-4.21 9.4,-9.4 z"
         id="path12" />
      <path
         inkscape:connector-curvature="0"
         style="fill:#999999"
         d="m 114.32,204.924 1.91,0.07 c -0.06,1.35 -0.08,2.7 -0.08,4.06 v 11.2 H 113.7 72.01 l -1.26,0.04 c -0.12,-5.16 -0.57,-10.29 -1.33,-15.37 z"
         id="path14" />
      <path
         inkscape:connector-curvature="0"
         style="fill:#ef7954"
         d="m 116.15,220.254 v 155.72 H 113.7 72.01 70.79 v -152.67 c 0,-1 -0.01,-2 -0.04,-3.01 l 1.26,-0.04 h 41.69 z"
         id="path16" />
    </g>
    <g
       id="g29">
      <g
         id="XMLID_24_">
        <g
           id="g24">
          <path
             inkscape:connector-curvature="0"
             style="fill:#cccccc"
             d="m 302.184,44.604 c 1.05,16.29 -6.12,30.95 -17.76,40.25 -16.08,12.85 -25.14,32.57 -25.14,53.15 v 204.34 c 0,11.07 2.75,21.93 7.8,31.78 3.33,6.49 5.2,13.84 5.2,21.63 0,26.74 -22.1,48.31 -49.03,47.46 l 13.98,-26.66 c 5.39,-10.27 1.43,-22.96 -8.85,-28.35 -3.11,-1.63 -6.45,-2.41 -9.74,-2.41 -7.55,0 -14.85,4.09 -18.61,11.25 l -13.82,26.36 c -5.05,-7.01 -8.24,-15.43 -8.82,-24.52 -1.05,-16.28 6.12,-30.95 17.76,-40.25 16.08,-12.85 25.13,-32.56 25.13,-53.15 v -204.34 c 0,-11.06 -2.74,-21.93 -7.79,-31.78 -3.33,-6.48 -5.21,-13.83 -5.21,-21.62 0,-26.75 22.11,-48.32 49.04,-47.47 l -13.98,26.66 c -5.39,10.27 -1.43,22.97 8.84,28.35 3.12,1.63 6.45,2.41 9.74,2.41 7.56,0 14.86,-4.09 18.62,-11.25 l 13.82,-26.36 c 5.04,7.01 8.24,15.43 8.82,24.52 z m -54.4,266.14 v -178 c 0,-4.42 -3.58,-8 -8,-8 -2.2,0 -4.2,0.89 -5.65,2.34 -1.45,1.45 -2.35,3.45 -2.35,5.66 v 178 c 0,4.42 3.59,8 8,8 4.42,0 8,-3.58 8,-8 z"
             id="path20" />
          <path
             inkscape:connector-curvature="0"
             style="fill:#999999"
             d="m 247.784,132.744 v 178 c 0,4.42 -3.58,8 -8,8 -4.41,0 -8,-3.58 -8,-8 v -178 c 0,-2.21 0.9,-4.21 2.35,-5.66 1.45,-1.45 3.45,-2.34 5.65,-2.34 4.42,0 8,3.58 8,8 z"
             id="path22" />
        </g>
        <g
           id="g26" />
      </g>
    </g>
    <g
       id="g46">
      <g
         id="XMLID_23_">
        <g
           id="g41">
          <polygon
             style="fill:#ef7954"
             points="401.927,302.594 357.927,302.594 341.427,295.094 341.427,285.364 371.927,285.364 387.927,285.364 418.427,285.364 418.427,295.094 "
             id="polygon31" />
          <path
             inkscape:connector-curvature="0"
             style="fill:#ef7954"
             d="m 401.927,316.594 v 97.5 c 0,1.47 -0.14,2.9 -0.42,4.29 l -1.58,-0.29 h -40.5 l -1.09,0.2 c -0.27,-1.36 -0.41,-2.76 -0.41,-4.2 v -97.5 h 1.5 40.5 z"
             id="path33" />
          <polygon
             style="fill:#999999"
             points="357.927,316.594 357.927,302.594 401.927,302.594 401.927,316.594 399.927,316.594 359.427,316.594 "
             id="polygon35" />
          <path
             inkscape:connector-curvature="0"
             style="fill:#999999"
             d="m 399.927,418.094 1.58,0.29 c -0.86,4.36 -3,8.25 -6.02,11.27 -3.98,3.98 -9.48,6.44 -15.56,6.44 -10.71,0 -19.64,-7.66 -21.59,-17.8 l 1.09,-0.2 z"
             id="path37" />
          <polygon
             style="fill:#cccccc"
             points="388.467,31.694 397.007,63.014 388.467,77.804 387.927,77.804 387.927,285.364 371.927,285.364 371.927,77.804 371.387,77.804 362.847,63.014 371.387,31.694 "
             id="polygon39" />
        </g>
        <g
           id="g43" />
      </g>
    </g>
  </g>
  <g
     transform="matrix(0.10338696,0,0,0.10338696,60.323364,19.565276)"
     id="g32">
    <path
       inkscape:connector-curvature="0"
       style="fill:#999999"
       d="m 347.045,248.043 v -46.364 l -47.493,-7.556 c -3.185,-13.104 -8.353,-25.432 -15.18,-36.641 l 28.242,-38.929 5.216,-32.784 h -38 L 240.9,114.013 C 229.692,107.186 217.364,102.019 204.26,98.834 L 196.704,51.339 H 150.34 l -7.556,47.497 c -13.103,3.185 -25.429,8.353 -36.636,15.18 l -0.932,-28.245 h -38 l -32.784,32.784 28.246,38.933 c -6.826,11.207 -11.993,23.533 -15.177,36.635 L 0,201.679 v 46.364 l 47.501,7.557 c 3.185,13.102 8.351,25.427 15.177,36.634 l -28.246,38.935 32.784,32.784 h 38 l 0.934,-28.246 c 11.207,6.827 23.533,11.993 36.635,15.179 l 7.557,47.499 h 46.364 l 7.556,-47.497 c 13.103,-3.185 25.43,-8.351 36.638,-15.178 l 38.931,28.244 h 38 l -5.216,-32.784 -28.243,-38.93 c 6.828,-11.208 11.995,-23.536 15.181,-36.639 z m -173.519,4.447 c -15.26,0 -27.64,-12.37 -27.64,-27.63 0,-15.26 12.38,-27.63 27.64,-27.63 15.26,0 27.63,12.37 27.63,27.63 0,15.26 -12.37,27.63 -27.63,27.63 z"
       id="path2-3" />
    <path
       inkscape:connector-curvature="0"
       style="fill:#cccccc"
       d="m 385.045,248.043 v -46.364 l -47.493,-7.556 c -3.185,-13.104 -8.353,-25.432 -15.18,-36.641 L 350.614,118.553 317.829,85.77 278.9,114.013 C 267.692,107.186 255.364,102.019 242.26,98.834 L 234.704,51.339 H 188.34 l -7.556,47.497 c -13.103,3.185 -25.429,8.353 -36.636,15.18 L 105.216,85.77 72.432,118.554 100.678,157.487 C 93.852,168.694 88.685,181.02 85.501,194.122 L 38,201.679 v 46.364 l 47.501,7.557 c 3.185,13.102 8.351,25.427 15.177,36.634 l -28.246,38.935 32.784,32.784 38.934,-28.246 c 11.207,6.827 23.533,11.993 36.635,15.179 l 7.557,47.499 h 46.364 l 7.556,-47.497 c 13.103,-3.185 25.43,-8.351 36.638,-15.178 l 38.931,28.244 32.784,-32.784 -28.243,-38.93 c 6.828,-11.208 11.995,-23.536 15.181,-36.639 z m -173.519,4.447 c -15.26,0 -27.64,-12.37 -27.64,-27.63 0,-15.26 12.38,-27.63 27.64,-27.63 15.26,0 27.63,12.37 27.63,27.63 0,15.26 -12.37,27.63 -27.63,27.63 z"
       id="path4-6" />
    <path
       inkscape:connector-curvature="0"
       style="fill:#999999"
       d="m 211.526,136.6 c -3.27,0 -6.49,0.18 -9.67,0.53 -44.2,4.81 -78.59,42.26 -78.59,87.73 0,45.48 34.39,82.92 78.59,87.73 3.18,0.35 6.4,0.53 9.67,0.53 48.74,0 88.26,-39.51 88.26,-88.26 0,-48.74 -39.52,-88.26 -88.26,-88.26 z m -27.64,88.26 c 0,-11.86 7.48,-21.98 17.98,-25.89 3.01,-1.13 6.26,-1.74 9.66,-1.74 15.26,0 27.63,12.37 27.63,27.63 0,15.26 -12.37,27.63 -27.63,27.63 -3.4,0 -6.65,-0.61 -9.66,-1.74 -10.5,-3.91 -17.98,-14.03 -17.98,-25.89 z"
       id="path6" />
    <path
       inkscape:connector-curvature="0"
       style="fill:#b3b3b3"
       d="m 201.856,137.13 c -44.2,4.81 -78.59,42.26 -78.59,87.73 0,45.48 34.39,82.92 78.59,87.73 44.2,-4.81 78.6,-42.25 78.6,-87.73 0,-45.47 -34.4,-82.92 -78.6,-87.73 z m -9.66,115.36 c -15.26,0 -27.64,-12.37 -27.64,-27.63 0,-15.26 12.38,-27.63 27.64,-27.63 3.4,0 6.66,0.61 9.67,1.74 10.49,3.92 17.96,14.03 17.96,25.89 0,11.86 -7.47,21.97 -17.96,25.89 -3.01,1.13 -6.27,1.74 -9.67,1.74 z"
       id="path8" />
    <path
       inkscape:connector-curvature="0"
       style="fill:#999999"
       d="m 202.192,178.3 c -25.72,0 -46.56,20.85 -46.56,46.56 0,25.72 20.84,46.56 46.56,46.56 25.71,0 46.56,-20.84 46.56,-46.56 0,-25.71 -20.85,-46.56 -46.56,-46.56 z m 0,74.19 c -15.26,0 -27.64,-12.37 -27.64,-27.63 0,-15.26 12.38,-27.63 27.64,-27.63 15.26,0 27.63,12.37 27.63,27.63 0,15.26 -12.37,27.63 -27.63,27.63 z"
       id="path10-2" />
    <path
       inkscape:connector-curvature="0"
       style="fill:#cccccc"
       d="m 211.526,178.3 c -25.72,0 -46.56,20.85 -46.56,46.56 0,25.72 20.84,46.56 46.56,46.56 25.71,0 46.56,-20.84 46.56,-46.56 0,-25.71 -20.85,-46.56 -46.56,-46.56 z m 0,74.19 c -15.26,0 -27.64,-12.37 -27.64,-27.63 0,-15.26 12.38,-27.63 27.64,-27.63 15.26,0 27.63,12.37 27.63,27.63 0,15.26 -12.37,27.63 -27.63,27.63 z"
       id="path12-1" />
    <path
       inkscape:connector-curvature="0"
       style="fill:#999999"
       d="m 211.526,197.23 c -7.36,0 -14.05,2.87 -19,7.58 5.31,5.02 8.63,12.15 8.63,20.05 0,7.9 -3.32,15.03 -8.63,20.05 4.95,4.71 11.64,7.58 19,7.58 15.26,0 27.63,-12.37 27.63,-27.63 0,-15.26 -12.37,-27.63 -27.63,-27.63 z"
       id="path14-6" />
    <g
       id="g30">
      <path
         inkscape:connector-curvature="0"
         style="fill:#999999"
         d="m 457.62,286.384 13.913,-29.179 h -26 l -31.86,7.626 c -5.421,-7.417 -11.887,-13.829 -19.106,-19.103 l 4.447,-43.949 h -26 l -17.138,27.923 c -8.834,-1.375 -17.939,-1.413 -27.017,-0.002 l 8.863,-27.922 h -26 l -29.18,12.087 7.626,31.863 c -7.416,5.42 -13.827,11.886 -19.1,19.104 l -5.866,-7.627 h -26 l -12.087,29.179 27.926,17.14 c -1.374,8.833 -1.413,17.937 -0.002,27.013 l -27.925,17.139 12.087,29.179 h 26 l 5.865,-7.627 c 5.42,7.415 11.885,13.826 19.102,19.099 l -7.627,31.867 29.179,12.086 h 26 l -8.86,-27.927 c 8.833,1.375 17.937,1.413 27.013,0.003 l 17.138,27.924 h 26 l 0.174,-24.645 -4.62,-19.304 c 7.416,-5.42 13.828,-11.885 19.102,-19.104 l 31.865,7.627 h 26 l -13.913,-29.179 -27.924,-17.138 c 1.375,-8.834 1.414,-17.94 0.003,-27.017 z m -108.048,48.033 c -9.604,3.978 -20.62,-0.58 -24.598,-10.184 -3.978,-9.604 0.589,-20.617 10.193,-24.595 9.604,-3.978 20.614,0.582 24.592,10.186 3.978,9.605 -0.582,20.615 -10.187,24.593 z"
         id="path16-3" />
      <path
         inkscape:connector-curvature="0"
         style="fill:#b3b3b3"
         d="m 483.62,286.384 -12.087,-29.179 -31.86,7.626 c -5.421,-7.417 -11.887,-13.829 -19.106,-19.103 l 7.626,-31.863 -29.18,-12.086 -17.138,27.923 c -8.834,-1.375 -17.939,-1.413 -27.017,-0.002 l -17.137,-27.922 -29.18,12.087 7.626,31.863 c -7.416,5.42 -13.827,11.886 -19.1,19.104 l -31.866,-7.627 -12.087,29.179 27.926,17.14 c -1.374,8.833 -1.413,17.937 -0.002,27.013 l -27.925,17.139 12.087,29.179 31.865,-7.627 c 5.42,7.415 11.885,13.826 19.102,19.099 l -7.627,31.867 29.179,12.086 17.14,-27.927 c 8.833,1.375 17.937,1.413 27.013,0.003 l 17.138,27.924 29.18,-12.087 -7.626,-31.863 c 7.416,-5.42 13.828,-11.885 19.102,-19.104 l 31.865,7.627 12.087,-29.179 -27.924,-17.138 c 1.375,-8.834 1.414,-17.94 0.003,-27.017 z m -108.048,48.033 c -9.604,3.978 -20.62,-0.58 -24.598,-10.184 -3.978,-9.604 0.589,-20.617 10.193,-24.595 9.604,-3.978 20.614,0.582 24.592,10.186 3.978,9.605 -0.582,20.615 -10.187,24.593 z"
         id="path18" />
      <path
         inkscape:connector-curvature="0"
         style="fill:#999999"
         d="m 368.37,256.905 c -2.228,0 -4.421,0.123 -6.587,0.361 -30.11,3.277 -53.537,28.788 -53.537,59.763 0,30.982 23.427,56.486 53.537,59.763 2.166,0.238 4.36,0.361 6.587,0.361 33.202,0 60.124,-26.915 60.124,-60.124 0,-33.202 -26.921,-60.124 -60.124,-60.124 z m -18.829,60.124 c 0,-8.079 5.096,-14.973 12.248,-17.637 2.05,-0.77 4.264,-1.185 6.581,-1.185 10.395,0 18.822,8.427 18.822,18.822 0,10.395 -8.427,18.822 -18.822,18.822 -2.316,0 -4.53,-0.415 -6.581,-1.185 -7.152,-2.664 -12.248,-9.558 -12.248,-17.637 z"
         id="path20-0" />
      <path
         inkscape:connector-curvature="0"
         style="fill:#cccccc"
         d="m 361.783,257.266 c -30.11,3.277 -53.537,28.788 -53.537,59.763 0,30.982 23.427,56.486 53.537,59.763 30.11,-3.277 53.543,-28.781 53.543,-59.763 0,-30.975 -23.434,-56.486 -53.543,-59.763 z m -6.581,78.585 c -10.395,0 -18.829,-8.427 -18.829,-18.822 0,-10.395 8.433,-18.822 18.829,-18.822 2.316,0 4.537,0.415 6.587,1.185 7.146,2.67 12.235,9.558 12.235,17.637 0,8.079 -5.089,14.966 -12.235,17.637 -2.05,0.769 -4.271,1.185 -6.587,1.185 z"
         id="path22-8" />
      <path
         inkscape:connector-curvature="0"
         style="fill:#999999"
         d="m 362.012,285.312 c -17.521,0 -31.717,14.203 -31.717,31.717 0,17.521 14.197,31.717 31.717,31.717 17.514,0 31.717,-14.197 31.717,-31.717 0.001,-17.514 -14.203,-31.717 -31.717,-31.717 z m 0,50.539 c -10.395,0 -18.829,-8.427 -18.829,-18.822 0,-10.395 8.433,-18.822 18.829,-18.822 10.396,0 18.822,8.427 18.822,18.822 0,10.395 -8.427,18.822 -18.822,18.822 z"
         id="path24" />
      <path
         inkscape:connector-curvature="0"
         style="fill:#b3b3b3"
         d="m 368.37,285.312 c -17.521,0 -31.717,14.203 -31.717,31.717 0,17.521 14.197,31.717 31.717,31.717 17.514,0 31.717,-14.197 31.717,-31.717 0.001,-17.514 -14.203,-31.717 -31.717,-31.717 z m 0,50.539 c -10.395,0 -18.829,-8.427 -18.829,-18.822 0,-10.395 8.433,-18.822 18.829,-18.822 10.395,0 18.822,8.427 18.822,18.822 0,10.395 -8.427,18.822 -18.822,18.822 z"
         id="path26" />
      <path
         inkscape:connector-curvature="0"
         style="fill:#999999"
         d="m 368.37,298.207 c -5.014,0 -9.571,1.955 -12.943,5.164 3.617,3.42 5.879,8.277 5.879,13.658 0,5.381 -2.262,10.239 -5.879,13.658 3.372,3.208 7.929,5.163 12.943,5.163 10.395,0 18.822,-8.427 18.822,-18.822 0,-10.395 -8.427,-18.821 -18.822,-18.821 z"
         id="path28" />
    </g>
  </g>
</svg>
